<?xml version="1.0" encoding="UTF-8" standalone="no"?>
<!DOCTYPE svg PUBLIC "-//W3C//DTD SVG 1.0//EN" "http://www.w3.org/TR/2001/PR-SVG-20010719/DTD/svg10.dtd">
<svg width="27cm" height="20cm" viewBox="461 -333 524 394" xmlns="http://www.w3.org/2000/svg" xmlns:xlink="http://www.w3.org/1999/xlink">
  <g>
    <rect style="fill: #00e4ff" x="493.4" y="-331.5" width="100.15" height="54"/>
    <rect style="fill: none; fill-opacity:0; stroke-width: 2; stroke: #000000" x="493.4" y="-331.5" width="100.15" height="54"/>
    <text font-size="12.7998" style="fill: #000000;text-anchor:middle;font-family:sans-serif;font-style:normal;font-weight:normal" x="543.475" y="-308.6">
      <tspan x="543.475" y="-308.6">sequencer</tspan>
      <tspan x="543.475" y="-292.6">output</tspan>
    </text>
  </g>
  <g>
    <rect style="fill: #00e4ff" x="712" y="-262" width="111.3" height="38"/>
    <rect style="fill: none; fill-opacity:0; stroke-width: 2; stroke: #000000" x="712" y="-262" width="111.3" height="38"/>
    <text font-size="12.7998" style="fill: #000000;text-anchor:middle;font-family:sans-serif;font-style:normal;font-weight:normal" x="767.65" y="-239.1">
      <tspan x="767.65" y="-239.1">mapping data</tspan>
    </text>
  </g>
  <g>
    <ellipse style="fill: #00ff00" cx="543.475" cy="-184.634" rx="69.8825" ry="34.9412"/>
    <ellipse style="fill: none; fill-opacity:0; stroke-width: 2; stroke: #000000" cx="543.475" cy="-184.634" rx="69.8825" ry="34.9412"/>
    <text font-size="12.8" style="fill: #000000;text-anchor:middle;font-family:sans-serif;font-style:normal;font-weight:700" x="543.475" y="-180.734">
      <tspan x="543.475" y="-180.734">"split libraries"</tspan>
    </text>
  </g>
  <g>
    <line style="fill: none; fill-opacity:0; stroke-width: 2; stroke: #000000" x1="710.997" y1="-228.25" x2="610.756" y2="-202.151"/>
    <polyline style="fill: none; fill-opacity:0; stroke-width: 2; stroke: #000000" points="617.01,-208.946 608.592,-201.588 619.53,-199.269 "/>
  </g>
  <g>
    <rect style="fill: #00e4ff" x="701.125" y="-183.5" width="133.05" height="54"/>
    <rect style="fill: none; fill-opacity:0; stroke-width: 2; stroke: #000000" x="701.125" y="-183.5" width="133.05" height="54"/>
    <text font-size="12.7998" style="fill: #000000;text-anchor:middle;font-family:sans-serif;font-style:normal;font-weight:normal" x="767.65" y="-160.6">
      <tspan x="767.65" y="-160.6">demultiplexed</tspan>
      <tspan x="767.65" y="-144.6">sequence data</tspan>
    </text>
  </g>
  <g>
    <line style="fill: none; fill-opacity:0; stroke-width: 2; stroke: #000000" x1="612.25" y1="-176.003" x2="689.253" y2="-166.339"/>
    <polygon style="fill: #000000" points="688.631,-161.378 699.175,-165.094 689.876,-171.3 "/>
    <polygon style="fill: none; fill-opacity:0; stroke-width: 2; stroke: #000000" points="688.631,-161.378 699.175,-165.094 689.876,-171.3 "/>
  </g>
  <g>
    <ellipse style="fill: #00ff00" cx="543.475" cy="-102.391" rx="81.4538" ry="40.7269"/>
    <ellipse style="fill: none; fill-opacity:0; stroke-width: 2; stroke: #000000" cx="543.475" cy="-102.391" rx="81.4538" ry="40.7269"/>
    <text font-size="12.8" style="fill: #000000;text-anchor:middle;font-family:sans-serif;font-style:normal;font-weight:700" x="543.475" y="-114.491">
      <tspan x="543.475" y="-114.491">OTU picking</tspan>
      <tspan x="543.475" y="-98.4914">&amp;</tspan>
      <tspan x="543.475" y="-82.4914">taxonomy</tspan>
    </text>
  </g>
  <g>
    <line style="fill: none; fill-opacity:0; stroke-width: 2; stroke: #000000" x1="700.168" y1="-140.212" x2="622.153" y2="-121.382"/>
    <polyline style="fill: none; fill-opacity:0; stroke-width: 2; stroke: #000000" points="628.527,-128.064 619.979,-120.857 630.873,-118.343 "/>
  </g>
  <g>
    <rect style="fill: #00e4ff" x="731.15" y="-89" width="73" height="54"/>
    <rect style="fill: none; fill-opacity:0; stroke-width: 2; stroke: #000000" x="731.15" y="-89" width="73" height="54"/>
    <text font-size="12.7998" style="fill: #000000;text-anchor:middle;font-family:sans-serif;font-style:normal;font-weight:normal" x="767.65" y="-66.1">
      <tspan x="767.65" y="-66.1">full OTU</tspan>
      <tspan x="767.65" y="-50.1">tables</tspan>
    </text>
  </g>
  <g>
    <line style="fill: none; fill-opacity:0; stroke-width: 2; stroke: #000000" x1="621.089" y1="-88.407" x2="719.32" y2="-70.7079"/>
    <polygon style="fill: #000000" points="718.434,-65.7871 729.162,-68.9347 720.207,-75.6287 "/>
    <polygon style="fill: none; fill-opacity:0; stroke-width: 2; stroke: #000000" points="718.434,-65.7871 729.162,-68.9347 720.207,-75.6287 "/>
  </g>
  <g>
    <ellipse style="fill: #00ff00" cx="543.475" cy="-26.5" rx="57.1794" ry="28.5897"/>
    <ellipse style="fill: none; fill-opacity:0; stroke-width: 2; stroke: #000000" cx="543.475" cy="-26.5" rx="57.1794" ry="28.5897"/>
    <text font-size="12.8" style="fill: #000000;text-anchor:middle;font-family:sans-serif;font-style:normal;font-weight:700" x="543.475" y="-22.6">
      <tspan x="543.475" y="-22.6">rarefaction</tspan>
    </text>
  </g>
  <g>
    <line style="fill: none; fill-opacity:0; stroke-width: 2; stroke: #000000" x1="730.146" y1="-56.0609" x2="603.395" y2="-35.9889"/>
    <polyline style="fill: none; fill-opacity:0; stroke-width: 2; stroke: #000000" points="610.282,-42.1417 601.187,-35.6392 611.846,-32.2648 "/>
  </g>
  <g>
    <rect style="fill: #00e4ff" x="709.95" y="5.5" width="115.4" height="54"/>
    <rect style="fill: none; fill-opacity:0; stroke-width: 2; stroke: #000000" x="709.95" y="5.5" width="115.4" height="54"/>
    <text font-size="12.7998" style="fill: #000000;text-anchor:middle;font-family:sans-serif;font-style:normal;font-weight:normal" x="767.65" y="28.4">
      <tspan x="767.65" y="28.4">representative</tspan>
      <tspan x="767.65" y="44.4">data subset</tspan>
    </text>
  </g>
  <g>
    <line style="fill: none; fill-opacity:0; stroke-width: 2; stroke: #000000" x1="595.045" y1="-12.9276" x2="698.307" y2="14.2499"/>
    <polygon style="fill: #000000" points="697.035,19.0852 707.978,16.7951 699.58,9.41454 "/>
    <polygon style="fill: none; fill-opacity:0; stroke-width: 2; stroke: #000000" points="697.035,19.0852 707.978,16.7951 699.58,9.41454 "/>
  </g>
  <g>
    <ellipse style="fill: #ff6700" cx="934.475" cy="-122.5" rx="48.5623" ry="24.2811"/>
    <ellipse style="fill: none; fill-opacity:0; stroke-width: 2; stroke: #000000" cx="934.475" cy="-122.5" rx="48.5623" ry="24.2811"/>
    <text font-size="12.8" style="fill: #000000;text-anchor:middle;font-family:sans-serif;font-style:normal;font-weight:700" x="934.475" y="-118.6">
      <tspan x="934.475" y="-118.6">analysis</tspan>
    </text>
  </g>
  <g>
    <line style="fill: none; fill-opacity:0; stroke-width: 2; stroke: #000000" x1="797.708" y1="4.57275" x2="903.592" y2="-93.8065"/>
    <polygon style="fill: #000000" points="909.087,-98.9115 905.164,-88.4419 903.592,-93.8065 898.358,-95.7678 "/>
    <polygon style="fill: none; fill-opacity:0; stroke-width: 2; stroke: #000000" points="909.087,-98.9115 905.164,-88.4419 903.592,-93.8065 898.358,-95.7678 "/>
  </g>
  <g>
    <path style="fill: #00ff00" d="M 504.775 -270.925 L 582.175,-270.925 C 592.862,-270.925 601.525,-266.739 601.525,-261.575 C 601.525,-256.411 592.862,-252.225 582.175,-252.225 L 504.775,-252.225 C 494.088,-252.225 485.425,-256.411 485.425,-261.575 C 485.425,-266.739 494.088,-270.925 504.775,-270.925z"/>
    <path style="fill: none; fill-opacity:0; stroke-width: 2; stroke: #000000" d="M 504.775 -270.925 L 582.175,-270.925 C 592.862,-270.925 601.525,-266.739 601.525,-261.575 C 601.525,-256.411 592.862,-252.225 582.175,-252.225 L 504.775,-252.225 C 494.088,-252.225 485.425,-256.411 485.425,-261.575 C 485.425,-266.739 494.088,-270.925 504.775,-270.925"/>
    <text font-size="10.1598" style="fill: #000000;text-anchor:middle;font-family:sans-serif;font-style:normal;font-weight:normal" x="543.475" y="-258.4">
      <tspan x="543.475" y="-258.4">preprocessing</tspan>
    </text>
  </g>
  <line style="fill: none; fill-opacity:0; stroke-width: 2; stroke: #000000" x1="543.475" y1="-276.582" x2="543.475" y2="-271.908"/>
  <line style="fill: none; fill-opacity:0; stroke-width: 2; stroke: #000000" x1="543.475" y1="-251.281" x2="543.475" y2="-220.569"/>
</svg>
